<svg width="24" height="24" viewBox="0 0 24 24" fill="none" xmlns="http://www.w3.org/2000/svg">
<path fill="#00AD64" fill-rule="evenodd" clip-rule="evenodd" d="M23 7C23 3.68629 20.3137 1 17 1H12.0161V9.0376L8.65 9.037L4.39917 5H1V7H3.60083L5.746 9.037L1 9.0376V12C1 14.2091 2.79086 16 5 16H9.857L8.36883 17.3298C7.95844 17.119 7.49311 17 7 17C5.34315 17 4 18.3431 4 20C4 21.6569 5.34315 23 7 23C8.65685 23 10 21.6569 10 20C10 19.5671 9.90831 19.1556 9.74329 18.7839L12 16.7681L14.2567 18.7839C14.0917 19.1556 14 19.5671 14 20C14 21.6569 15.3431 23 17 23C18.6569 23 20 21.6569 20 20C20 18.3431 18.6569 17 17 17C16.5069 17 16.0416 17.119 15.6312 17.3298L14.143 16H17C20.3137 16 23 13.3137 23 10V7ZM16 20C16 19.4477 16.4477 19 17 19C17.5523 19 18 19.4477 18 20C18 20.5523 17.5523 21 17 21C16.4477 21 16 20.5523 16 20ZM7 19C6.44772 19 6 19.4477 6 20C6 20.5523 6.44772 21 7 21C7.55228 21 8 20.5523 8 20C8 19.4477 7.55228 19 7 19ZM14.0161 3H17C19.2091 3 21 4.79086 21 7V10C21 12.2091 19.2091 14 17 14H5C3.89543 14 3 13.1046 3 12V11.0376H14.0161V3Z" />
</svg>
