<svg width="24" height="24" viewBox="0 0 24 24" fill="none" xmlns="http://www.w3.org/2000/svg">
<path fill="#00AD64" fill-rule="evenodd" clip-rule="evenodd" d="M20 2V4H18V4.999L19 5C20.6569 5 22 6.34315 22 8V22L2.47557 22.0012L2.18053 21.5406C1.41393 20.3438 1 18.9513 1 17.5C1 14.2345 3.08696 11.4564 5.99987 10.4268L6 9.5C6 8.11929 7.11929 7 8.5 7C9.88071 7 11 8.11929 11 9.5L11.0011 10.4272C11.2774 10.5249 11.5462 10.6383 11.8065 10.7663C12.1184 10.9337 12.4174 11.1156 12.7037 11.3122C13.0669 11.5616 13.4101 11.8349 13.7331 12.1321L13.5589 11.9758C13.6441 12.0503 13.7279 12.1264 13.8104 12.204L13.8109 12.2044L14.0023 12.3899L14.0002 12.401L14.005 12.406L14.01 12.412L14.017 12.42L14.164 12.585L14.3107 12.7577L14.4212 12.8959L14.5766 13.103L14.774 13.3888L14.9505 13.6711L15.0759 13.8904L15.2466 14.2201C15.358 14.4487 15.4582 14.684 15.5463 14.9251L15.6879 15.3533L15.7649 15.6297L15.8424 15.9651L15.8982 16.2633L15.9393 16.5414L15.9786 16.9303L15.9943 17.2061L16 17.5L15.9911 17.8689L15.9686 18.1903L15.9403 18.45L15.9051 18.6951L15.8556 18.9708L15.7832 19.2967L15.7353 19.4812L15.6332 19.8225L15.573 20.0002L20 20V8C20 7.44772 19.5523 7 19 7H15C14.4477 7 14 7.44772 14 7.99996L14.0016 11.0398L13.9403 10.9894C13.8833 10.9431 13.8258 10.8973 13.7678 10.8522L14.0016 11.0398C13.8723 10.9329 13.7403 10.8291 13.6056 10.7284C13.5486 10.6858 13.4914 10.644 13.4337 10.6028C13.3865 10.569 13.3389 10.5356 13.291 10.5025C13.2246 10.4566 13.1578 10.4116 13.0903 10.3674C13.0376 10.3327 12.9843 10.2984 12.9306 10.2646C12.8779 10.2313 12.8249 10.1985 12.7715 10.1661C12.7055 10.1261 12.6389 10.0867 12.5717 10.0479C12.5183 10.0171 12.4647 9.98679 12.4107 9.95687L12.2242 9.85585L12.2108 9.84874C12.0872 9.78359 11.962 9.72054 11.8349 9.65959L12.001 9.743L12 8C12 6.34315 13.3431 5 15 5L16 4.999V4H14V2H20ZM8.5 12C5.46243 12 3 14.4624 3 17.5C3 18.3842 3.20833 19.2359 3.60004 20.0012H13.4L13.5105 19.7722L13.5767 19.6205L13.654 19.42L13.7347 19.1935C13.7644 19.1015 13.7917 19.0087 13.8165 18.915L13.8787 18.6549C13.9388 18.3734 13.977 18.0856 13.9923 17.7935L14 17.493L13.9908 17.1795L13.9706 16.9281L13.9508 16.7614C13.9145 16.4909 13.8584 16.2254 13.7835 15.9665L13.721 15.7653L13.6738 15.6295C13.6155 15.4685 13.55 15.311 13.4776 15.1574L13.3634 14.9291L13.238 14.7052L13.096 14.4779L12.9435 14.2582L12.8584 14.1444L12.7082 13.9582L12.5141 13.7399L12.2959 13.5199C11.3088 12.5782 9.97193 12 8.5 12ZM8.5 9C8.22386 9 8 9.22386 8 9.5V10H9V9.5C9 9.22386 8.77614 9 8.5 9Z" />
</svg>
