<svg width="24" height="24" viewBox="0 0 25 24" fill="none" xmlns="http://www.w3.org/2000/svg">
<path fill="#00AD64" fill-rule="evenodd" clip-rule="evenodd" d="M16.2755 5.51474L12.0328 1.27209L1.42624 11.8787L5.66888 16.1213L16.2755 5.51474ZM15.8864 1.33275L14.4722 2.74697L17.3176 5.59241L17.401 5.68691C17.6561 6.01566 17.6829 6.47428 17.456 6.83356L14.2876 11.8496L14.1972 12.0025C13.5706 13.137 13.7425 14.5558 14.6404 15.5089L15.2281 16.1332L13.7651 17.5962L19.4219 23.2531C20.203 24.0341 21.4693 24.0341 22.2504 23.2531L23.6646 21.8389C24.4456 21.0578 24.4456 19.7915 23.6646 19.0104L18.0077 13.3536L16.6423 14.719L16.0961 14.1375L16.0173 14.0429C15.7768 13.715 15.7569 13.2684 15.9785 12.9177L19.1469 7.90164L19.2433 7.73781C19.8784 6.57661 19.6784 5.12472 18.7318 4.1782L15.8864 1.33275ZM12.0328 4.10052L4.25467 11.8787L5.66888 13.2929L13.4471 5.51474L12.0328 4.10052ZM22.3809 20.4376L18.0072 16.0638L16.593 17.478L20.9667 21.8519L22.3809 20.4376Z"/>
</svg>
