<svg width="24" height="24" viewBox="0 0 24 24" fill="none" xmlns="http://www.w3.org/2000/svg">
<path d="M19 10.3259C19 13.2173 19 20 19 20C19 20.5523 18.5523 21 18 21H6C5.44772 21 5 20.5523 5 20V10.7134" stroke="#00AD64" stroke-width="2"/>
<path d="M18.9519 3.51654L19.8273 3.03308L18.9519 3.51654ZM5.04805 3.51654L4.17268 3.03308L5.04805 3.51654ZM5.92342 4H18.0766V2H5.92342V4ZM18.0766 4L21.1246 9.51886L22.8754 8.55194L19.8273 3.03308L18.0766 4ZM7.83604 8.46267L7.76281 8.3786L6.25468 9.6922L6.32791 9.77627L7.83604 8.46267ZM2.87537 9.51886L5.92342 4L4.17268 3.03308L1.12463 8.55194L2.87537 9.51886ZM6.24539 8.38942C5.33368 9.4668 3.67122 9.466 2.76447 8.39074L1.23553 9.68006C2.94355 11.7055 6.06371 11.7002 7.7721 9.68138L6.24539 8.38942ZM11.2239 8.40476C10.3573 9.47123 8.73861 9.4989 7.83604 8.46267L6.32791 9.77627C8.04577 11.7485 11.1266 11.6959 12.7761 9.66604L11.2239 8.40476ZM21.2355 8.39074C20.3326 9.46151 18.6799 9.45936 17.7897 8.39413L16.2551 9.67667C17.9504 11.7053 21.0681 11.6916 22.7645 9.68006L21.2355 8.39074ZM18.0766 4L19.8273 3.03308C19.4753 2.39571 18.8047 2 18.0766 2V4ZM16.256 8.39301C15.3615 9.46023 13.6839 9.46494 12.7597 8.38515L11.2403 9.68565C12.9494 11.6825 16.0818 11.7142 17.7888 9.67779L16.256 8.39301ZM5.92342 2C5.1953 2 4.5247 2.39571 4.17268 3.03308L5.92342 4L5.92342 4V2Z" fill="#00AD64"/>
<path d="M14 12V15H10V12" stroke="#00AD64" stroke-width="2"/>
</svg>
