<svg width="24" height="24" viewBox="0 0 24 24" fill="none" xmlns="http://www.w3.org/2000/svg">
  <path fill="#00AD64" fill-rule="evenodd" clip-rule="evenodd" d="M14.4896 4.74002C14.1098 4.27188 13.5392 4 12.9364 4H5.7492C5.13638 4 4.55738 4.28095 4.17815 4.76233L0.551088 9.36638C0.273224 9.71909 0.122131 10.155 0.122131 10.604V16C0.122131 17.1046 1.01756 18 2.12213 18L3.33733 18.001C3.89927 19.183 5.10423 20 6.50002 20C7.89581 20 9.10076 19.183 9.66271 18.001H14.3373C14.8993 19.183 16.1042 20 17.5 20C18.9284 20 20.1568 19.1444 20.701 17.9178L22 17.9172C23.1046 17.9172 24 17.0218 24 15.9172C24 15.8405 23.9956 15.764 23.9868 15.6878L23.431 10.8747C23.3305 10.0042 22.675 9.30045 21.8138 9.13855L17.3818 8.30536L14.4896 4.74002ZM5.00002 16.5C5.00002 15.6716 5.67159 15 6.50002 15C7.32844 15 8.00002 15.6716 8.00002 16.5C8.00002 17.3284 7.32844 18 6.50002 18C5.67159 18 5.00002 17.3284 5.00002 16.5ZM17.5 15C16.6716 15 16 15.6716 16 16.5C16 17.3284 16.6716 18 17.5 18C18.3284 18 19 17.3284 19 16.5C19 15.6716 18.3284 15 17.5 15ZM12.9364 6L16.291 10.1353L21.4443 11.1041L22 15.9172L20.9517 15.9171C20.6742 14.2616 19.2344 13 17.5 13C15.7368 13 14.278 14.3039 14.0355 16H9.96458C9.72199 14.3039 8.26327 13 6.50002 13C4.73676 13 3.27805 14.3039 3.03545 16L2.12213 16V10.604L5.7492 6H12.9364Z"/>
</svg>
