<svg width="24" height="24" viewBox="0 0 24 24" fill="none" xmlns="http://www.w3.org/2000/svg">
<path  fill="#00AD64" fill-rule="evenodd" clip-rule="evenodd" d="M14.4348 4.32029C13.8423 2.05625 13.121 1.02069 12.0464 1.02069C11.1559 1.02069 10.4999 1.73925 9.94876 3.2874L9.81842 3.67494C9.7756 3.80946 9.73339 3.94936 9.69171 4.09467L9.56822 4.54695L9.44756 5.0321L9.32933 5.55048L9.21312 6.10241L9.09854 6.68825L9.02052 7.11508C8.3601 6.04204 7.65885 5.1154 6.95162 4.35854C6.38871 3.75613 5.64973 3.99128 5.28781 4.50427C5.16346 4.68052 5.07791 4.88757 5.00419 5.14289C4.88443 5.55769 4.79494 6.12714 4.75019 6.77042C4.64134 8.33515 4.79741 10.1157 5.26974 11.813C5.44167 12.4307 5.80248 13.155 6.35344 14H2.98267L5.48148 21.54C5.77252 22.4182 6.51444 23 7.34331 23H16.518C17.3468 23 18.0888 22.4182 18.3798 21.54L20.8786 14H17.4809C18.0318 13.155 18.3926 12.4307 18.5646 11.813C19.0369 10.1157 19.193 8.33515 19.0841 6.77042C19.0394 6.12714 18.9499 5.55769 18.8301 5.14289C18.7564 4.88757 18.6708 4.68052 18.5465 4.50427C18.1846 3.99128 17.4456 3.75613 16.8827 4.35854C16.8097 4.4366 16.7369 4.51646 16.6641 4.5981L16.4706 4.84945C15.2714 6.40738 14.2344 8.14008 13.3597 10.0483L13.1022 10.626L13.0258 10.8022C12.9938 10.8926 12.9614 10.9856 12.9287 11.0809L12.7541 11.6033L12.573 12.1704L12.3854 12.7825L12.1913 13.4397L12.0311 14H11.8032L11.643 13.4397L11.4489 12.7825L11.17 11.8812L10.9921 11.3365L10.8206 10.8365C10.7925 10.7568 10.7647 10.6791 10.7372 10.6032L10.575 10.1698L10.5511 10.1102L10.6426 9.49919C10.6657 9.34945 10.689 9.20209 10.7122 9.05712L10.8519 8.21596L10.9922 7.4322C11.0157 7.30637 11.0391 7.18294 11.0626 7.0619L11.2036 6.36456C11.2743 6.03033 11.3451 5.71777 11.416 5.42697L11.5579 4.87441C11.6053 4.69991 11.6527 4.53511 11.7001 4.38003L11.7699 4.1588C11.8395 3.94561 11.9081 3.75659 11.9749 3.59251L12.0395 3.43769L12.1005 3.5837C12.1868 3.80198 12.2759 4.06462 12.3657 4.3698C12.4797 4.75735 12.5929 5.20568 12.705 5.71439L12.839 6.3538C12.8613 6.46519 12.8835 6.57899 12.9056 6.6952L13.038 7.42126L13.1659 8.18513C13.6455 7.27159 14.1649 6.39985 14.7242 5.56999L14.7214 5.55557L14.6089 5.03654C14.59 4.95282 14.5709 4.87049 14.5517 4.78953L14.4348 4.32029ZM5.96532 16H7.82492H16.0094H17.896L16.4333 21H7.42897L5.96532 16ZM16.6497 11.2738C16.4805 11.882 15.9433 12.8047 15.042 14H14.101L14.1827 13.7181L14.3644 13.1121L14.6235 12.2881L14.866 11.5664L15.0184 11.1425L15.1632 10.7645L15.3004 10.4326C15.3437 10.3324 15.3857 10.2396 15.4265 10.1541L15.4625 10.1492L15.4552 10.0954L15.6353 9.72863C16.0507 8.90397 16.4927 8.1522 16.9469 7.48244L17.117 7.23669L17.1217 7.31933C17.1641 8.56419 17.0172 9.95345 16.6497 11.2738ZM8.79233 14H9.73332L9.65157 13.7181L9.46988 13.1121L9.21085 12.2881L8.9683 11.5664L8.8159 11.1425L8.67106 10.7645L8.53387 10.4326C8.48942 10.3297 8.44626 10.2344 8.40441 10.147L8.199 9.72863C7.7836 8.90397 7.34156 8.1522 6.88736 7.48244L6.71731 7.23669L6.71265 7.31933C6.67017 8.56419 6.81711 9.95345 7.18458 11.2738C7.35384 11.882 7.89098 12.8047 8.79233 14Z"/>
</svg>
