<svg width="25" height="24" viewBox="0 0 25 24" fill="none" xmlns="http://www.w3.org/2000/svg">
<g  fill="#00AD64" fill-rule="evenodd" clip-rule="evenodd">
<path d="M20.8613 21V23H4.86127V21H20.8613Z" />
<path d="M21.207 17.6411C22.621 16.7449 23.0391 14.6285 22.4611 11.2916C19.6327 11.608 17.7867 12.3888 16.923 13.634C16.1155 14.7982 16.1315 16.2935 16.9711 18.1198L16.0306 19.9998H18.2676L18.9898 18.5578C19.7104 18.4267 20.4494 18.1212 21.207 17.6411ZM18.5664 14.7738C18.8537 14.3597 19.4786 13.9841 20.4624 13.6968L20.7159 13.6268L20.7216 13.871C20.7332 15.0569 20.4951 15.7244 20.1364 15.9518C19.5863 16.3004 19.0849 16.5077 18.632 16.5901L18.5172 16.6109C18.2302 15.7587 18.2808 15.1856 18.5664 14.7738Z" />
<path d="M15.0629 10.4948C14.7499 7.16126 11.3579 4.4946 4.88679 2.49481C2.88251 7.82231 2.59772 11.8208 4.03243 14.4904C5.32552 16.8965 7.86149 18.2183 11.6403 18.4558L12.4126 19.9998H14.6496L13.5171 17.7325C14.8224 15.8339 15.3377 13.4213 15.0629 10.4948ZM5.79413 13.5436C4.86851 11.8213 4.89355 9.11033 6.00348 5.41974L6.12656 5.02057L6.4996 5.15977C10.789 6.79146 12.8848 8.69102 13.0717 10.6818C13.2985 13.0976 12.9124 15.0042 11.9546 16.4716L11.4337 16.4355C8.48801 16.1905 6.68994 15.2105 5.79413 13.5436Z" />
</g>
</svg>
