<svg width="26" height="24" viewBox="0 0 26 24" fill="none" xmlns="http://www.w3.org/2000/svg">
<g fill="#00AD64" fill-rule="evenodd" clip-rule="evenodd">
<path d="M19.9109 6.22574C20.3682 4.3918 19.508 2.51813 17.8467 2.10394C16.1855 1.68975 14.5464 2.94027 14.0891 4.77421C13.6319 6.60815 14.4921 8.48182 16.1533 8.89601C17.8145 9.3102 19.4536 8.05968 19.9109 6.22574ZM16.0297 5.25805C16.2405 4.4126 16.8806 3.92428 17.3629 4.04453C17.8452 4.16478 18.1811 4.89644 17.9703 5.7419C17.7595 6.58735 17.1194 7.07567 16.6371 6.95542C16.1548 6.83517 15.8189 6.10351 16.0297 5.25805Z" />
<path d="M6.0891 6.22574C5.63185 4.3918 6.49205 2.51813 8.15326 2.10394C9.81447 1.68975 11.4536 2.94027 11.9109 4.77421C12.3681 6.60815 11.5079 8.48182 9.84671 8.89601C8.1855 9.3102 6.54635 8.05968 6.0891 6.22574ZM9.97028 5.25805C9.75949 4.4126 9.11941 3.92428 8.6371 4.04453C8.1548 4.16478 7.8189 4.89644 8.02969 5.7419C8.24049 6.58735 8.88057 7.07567 9.36287 6.95542C9.84518 6.83517 10.1811 6.10351 9.97028 5.25805Z" />
<path d="M1.30364 12.8151C0.475085 11.1163 0.926929 9.10476 2.46573 8.35424C4.00452 7.60372 5.86785 8.4861 6.69641 10.1849C7.52497 11.8837 7.07312 13.8953 5.53433 14.6458C3.99553 15.3963 2.1322 14.5139 1.30364 12.8151ZM4.89882 11.0616C4.51685 10.2785 3.78923 9.93392 3.34247 10.1518C2.89571 10.3697 2.71926 11.1552 3.10123 11.9384C3.4832 12.7215 4.21082 13.0661 4.65758 12.8482C5.10435 12.6303 5.28079 11.8448 4.89882 11.0616Z" />
<path d="M24.6489 12.9084C25.5362 11.2396 25.1548 9.21346 23.6432 8.4097C22.1315 7.60593 20.2385 8.42275 19.3512 10.0916C18.4638 11.7604 18.8452 13.7866 20.3569 14.5903C21.8685 15.3941 23.7615 14.5773 24.6489 12.9084ZM21.1171 11.0305C21.5261 10.2612 22.2653 9.94223 22.7042 10.1756C23.1431 10.409 23.292 11.2001 22.883 11.9695C22.4739 12.7388 21.7347 13.0578 21.2958 12.8244C20.8569 12.5911 20.708 11.7999 21.1171 11.0305Z" />
<path d="M16.2008 12.6356C14.3991 10.9452 11.5929 10.9492 9.7961 12.6448L9.66735 12.7663L9.35598 13.0697C7.82496 14.6099 6.6837 16.4963 6.0305 18.5719C5.5644 20.053 6.3872 21.6315 7.86829 22.0976C8.37348 22.2566 8.91331 22.2696 9.42559 22.1353L9.75411 22.0491C11.8825 21.4908 14.119 21.4908 16.2474 22.0491L16.5787 22.136C18.083 22.5306 19.6224 21.631 20.017 20.1267C20.1509 19.6163 20.1387 19.0785 19.9817 18.5746C19.2916 16.3595 18.0395 14.3608 16.3475 12.7732L16.2008 12.6356ZM7.93826 19.1723C8.49288 17.4099 9.46005 15.8076 10.7571 14.4972L11.04 14.2209L11.1688 14.0994C12.1966 13.1295 13.8018 13.1272 14.8324 14.0941L14.979 14.2317C16.4192 15.583 17.4849 17.2841 18.0722 19.1695C18.1177 19.3155 18.1213 19.4714 18.0825 19.6193C17.9681 20.0551 17.5221 20.3158 17.0862 20.2015L16.7548 20.1145C14.2937 19.4689 11.7077 19.4689 9.24664 20.1145L8.91813 20.2007C8.77027 20.2395 8.61447 20.2357 8.46867 20.1898C8.04121 20.0553 7.80374 19.5997 7.93826 19.1723Z" />
</g>
</svg>
