<svg width="24" height="24" viewBox="0 0 24 24" fill="none" xmlns="http://www.w3.org/2000/svg">
<g fill="#00AD64" fill-rule="evenodd" clip-rule="evenodd">
<path d="M20 7C21.1046 7 22 7.81403 22 8.81818V21.1818C22 22.186 21.1046 23 20 23H13C11.8954 23 11 22.186 11 21.1818L11 8.81818C11 7.81403 11.8954 7 13 7H20ZM16.5413 10C15.9891 10 15.5413 10.4477 15.5413 11C15.5413 11.5523 15.9891 12 16.5413 12C17.0936 12 17.5413 11.5523 17.5413 11C17.5413 10.4477 17.0936 10 16.5413 10ZM20 9H13V21H20V9Z" />
<path d="M13.4545 2C14.8604 2 16 3.06841 16 4.38636V6H14V4H4V19H10V21H4.54545C3.13964 21 2 19.9316 2 18.6136V4.38636C2 3.06841 3.13964 2 4.54545 2H13.4545ZM9 5C9.55228 5 10 5.44772 10 6C10 6.55228 9.55228 7 9 7C8.44772 7 8 6.55228 8 6C8 5.44772 8.44772 5 9 5Z" />
</g>
</svg>
