<svg width="24" height="24" viewBox="0 0 24 24" fill="none" xmlns="http://www.w3.org/2000/svg">
<path fill="#00AD64" fill-rule="evenodd" clip-rule="evenodd" d="M8.17035 1.6322L12.3937 5.85559L9.08159 9.1672L11.0846 11.1712L15.255 7.00067C15.4747 5.5924 16.4531 4.36168 17.8746 3.87646L18.0682 3.8158L19.8603 3.30379L20.4097 5.22684L18.6177 5.73885C17.5864 6.0335 16.9892 7.10838 17.2839 8.13966C17.3745 8.457 17.5446 8.74599 17.778 8.97936C18.5364 9.73777 19.766 9.73777 20.5244 8.97936C20.7111 8.79267 20.8572 8.57037 20.9547 8.32644L21.0185 8.13966L21.5305 6.34762L23.4535 6.89706L22.9415 8.6891C22.7575 9.33325 22.4123 9.91987 21.9386 10.3936C21.1803 11.1519 20.1899 11.5366 19.1961 11.5479L15.3276 15.4142L20.7175 20.8033L19.3033 22.2175L13.9126 16.8282L8.42142 22.3212C7.64038 23.1022 6.37405 23.1022 5.593 22.3212L4.17878 20.907C3.39774 20.1259 3.39774 18.8596 4.17878 18.0786L9.67059 12.5852L7.66659 10.5812L3.85434 14.395L3.14724 13.6879C1.4415 11.9822 0.992253 10.3452 1.77435 8.61482C2.25908 7.54237 2.88535 6.7887 4.78798 4.93593L6.78937 3.00497L7.16006 2.64085L8.17035 1.6322ZM15.4925 9.59328L5.593 19.4928L7.00721 20.907L16.9067 11.0075L15.4925 9.59328ZM8.1659 4.45617L6.43266 6.12701L5.62741 6.9168L5.21646 7.33205C4.26508 8.30859 3.86494 8.8454 3.59685 9.43854C3.28443 10.1298 3.33674 10.7466 3.90126 11.5197L9.56532 5.85559L8.1659 4.45617Z"/>
</svg>
