<svg width="25" height="24" viewBox="0 0 25 24" fill="none" xmlns="http://www.w3.org/2000/svg">
<path  fill="#00AD64" fill-rule="evenodd" clip-rule="evenodd" d="M23.8613 12C23.8613 5.92487 18.9364 1 12.8613 1C6.78613 1 1.86127 5.92487 1.86127 12C1.86127 18.0751 6.78613 23 12.8613 23C18.9364 23 23.8613 18.0751 23.8613 12ZM7.28973 4.93143C8.82219 3.72187 10.7574 3 12.8613 3C14.9647 3 16.8995 3.72156 18.4322 4.93163C16.7901 6.88689 15.8613 9.36992 15.8613 12C15.8613 14.6313 16.7911 17.1144 18.4328 19.0686C16.9003 20.2781 14.9651 21 12.8613 21C10.7574 21 8.82219 20.2781 7.29031 19.0683C8.93347 17.1118 9.86127 14.6289 9.86127 12C9.86127 9.3709 8.93329 6.88818 7.28973 4.93143ZM5.86212 6.34318L5.83847 6.37096C4.60137 7.91238 3.86127 9.86976 3.86127 12C3.86127 14.1429 4.61016 16.1108 5.86049 17.6564C7.14199 16.0762 7.86127 14.0963 7.86127 12C7.86127 9.90357 7.14183 7.92373 5.86212 6.34318ZM19.6955 6.55302L19.862 6.34362C21.1124 7.8892 21.8613 9.85715 21.8613 12C21.8613 14.1429 21.1124 16.1108 19.8603 17.6569C18.582 16.078 17.8613 14.0978 17.8613 12C17.8613 9.99489 18.5195 8.09673 19.6955 6.55302Z"/>
</svg>
